#!OML:ASF H:\Dans Jumps\Project 1\Capture day 1\Session 1\subject.ASF
:FULLY-SPECIFIED
:DEGREES
425
root 0.402608 21.2275 -4.44629 8.06779 5.87327 -2.07951
lowerback 7.16969 -0.597155 -1.49331
upperback 4.05073 -0.862961 2.09683
thorax 0.217347 -0.475253 3.05889
lowerneck -11.2586 -0.561947 -1.32789
upperneck 26.2089 -0.887414 1.51977
head 10.2126 -0.356974 0.659269
rclavicle 7.60351e-015 -1.71949e-014
rhumerus -25.5597 -5.58938 -83.3569
rradius 44.5127
rwrist 20.4094
rhand -22.8801 -22.5028
rfingers 7.12502
rthumb 3.55886 -52.4528
lclavicle 7.60351e-015 -1.71949e-014
lhumerus -19.9118 -10.6123 90.3261
lradius 39.851
lwrist 31.3641
lhand -25.1921 -10.3665
lfingers 7.12502
lthumb 1.32604 19.6091
rfemur -21.3728 -5.27357 21.3282
rtibia 35.7449
rfoot 15.5154 -6.1681
rtoes 12.7262
lfemur -24.5352 4.41606 -15.5971
ltibia 37.7202
lfoot 22.8716 1.33714
ltoes -0.218885
426
root 0.404489 21.2748 -4.24144 8.03413 6.01467 -2.09273
lowerback 7.10286 -0.576447 -1.48053
upperback 3.94513 -0.833512 2.0984
thorax 0.143043 -0.458287 3.0511
lowerneck -11.2092 -0.643884 -1.39873
upperneck 26.436 -1.01895 1.63074
head 10.2891 -0.410878 0.69615
rclavicle -2.18663e-015 1.2921e-014
rhumerus -25.8139 -5.7098 -83.262
rradius 43.9059
rwrist 20.5556
rhand -22.9638 -22.4366
rfingers 7.12502
rthumb 3.47802 -52.388
lclavicle -2.18663e-015 1.2921e-014
lhumerus -19.9365 -10.4877 90.3475
lradius 39.5481
lwrist 31.1653
lhand -25.2404 -10.4404
lfingers 7.12502
lthumb 1.27943 19.5355
rfemur -21.8799 -5.38283 21.3406
rtibia 34.3364
rfoot 15.0739 -6.1455
rtoes 12.36
lfemur -25.2223 4.51641 -15.6857
ltibia 36.5917
lfoot 22.1466 1.05725
ltoes -0.505771
427
root 0.406671 21.3096 -4.03454 8.01096 6.1296 -2.09323
lowerback 6.98345 -0.549394 -1.48112
upperback 3.84584 -0.796346 2.0942
thorax 0.104028 -0.438152 3.04354
lowerneck -11.1506 -0.720525 -1.45671
upperneck 26.6569 -1.14187 1.72472
head 10.3618 -0.461441 0.72593
rclavicle -2.4699e-014 -2.28602e-015
rhumerus -26.0561 -5.746 -83.1765
rradius 43.3435
rwrist 20.712
rhand -23.0345 -22.392
rfingers 7.12502
rthumb 3.40983 -52.3445
lclavicle -2.4699e-014 -2.28602e-015
lhumerus -19.9997 -10.4382 90.3369
lradius 39.3295
lwrist 31.0142
lhand -25.2482 -10.4538
lfingers 7.12502
lthumb 1.27189 19.5222
rfemur -22.3938 -5.45291 21.3175
rtibia 32.9427
rfoot 14.7918 -6.11479
rtoes 12.1186
lfemur -25.8658 4.58862 -15.7845
ltibia 35.3864
lfoot 21.5352 0.672406
ltoes -0.874054
428
root 0.409202 21.3318 -3.82546 7.97001 6.21839 -2.07645
lowerback 6.8332 -0.51608 -1.49591
upperback 3.76049 -0.751748 2.08022
thorax 0.0961517 -0.414962 3.03294
lowerneck -11.0615 -0.791256 -1.50419
upperneck 26.8552 -1.25584 1.80614
head 10.4203 -0.508409 0.750562
rclavicle -1.2424e-014 2.5842e-015
rhumerus -26.2758 -5.72053 -83.1041
rradius 42.8161
rwrist 20.8747
rhand -23.1296 -22.3254
rfingers 7.12502
rthumb 3.3179 -52.2793
lclavicle -1.2424e-014 2.5842e-015
lhumerus -20.1065 -10.461 90.2905
lradius 39.2061
lwrist 30.9274
lhand -25.1918 -10.4112
lfingers 7.12502
lthumb 1.32637 19.5644
rfemur -22.8766 -5.48614 21.2481
rtibia 31.5674
rfoot 14.6794 -6.0918
rtoes 12.0663
lfemur -26.4276 4.63817 -15.8965
ltibia 34.1037
lfoot 21.0528 0.190529
ltoes -1.27551
429
root 0.41211 21.3414 -3.61388 7.88461 6.27919 -2.05413
lowerback 6.67561 -0.474865 -1.51217
upperback 3.6927 -0.696844 2.05954
thorax 0.109802 -0.387031 3.0155
lowerneck -10.9364 -0.859655 -1.5418
upperneck 27.0344 -1.36604 1.87597
head 10.4648 -0.554152 0.769908
rclavicle 2.0773e-014 -2.3059e-014
rhumerus -26.4896 -5.65095 -83.0412
rradius 42.3444
rwrist 21.0291
rhand -23.2031 -22.2823
rfingers 7.12502
rthumb 3.24695 -52.2373
lclavicle 2.0773e-014 -2.3059e-014
lhumerus -20.259 -10.5519 90.2108
lradius 39.1762
lwrist 30.9051
lhand -25.067 -10.321
lfingers 7.12502
lthumb 1.44687 19.6538
rfemur -23.2937 -5.48165 21.1424
rtibia 30.2094
rfoot 14.7223 -6.06778
rtoes 12.1366
lfemur -26.876 4.67072 -16.0056
ltibia 32.748
lfoot 20.7069 -0.380658
ltoes -1.67969
430
root 0.415444 21.338 -3.39985 7.73842 6.30715 -2.03087
lowerback 6.52649 -0.424787 -1.52454
upperback 3.64561 -0.63012 2.03276
thorax 0.139319 -0.353493 2.98901
lowerneck -10.7841 -0.922351 -1.57694
upperneck 27.2063 -1.46722 1.93863
head 10.5013 -0.596473 0.787506
rclavicle 1.2921e-014 -1.31198e-014
rhumerus -26.691 -5.55343 -82.9873
rradius 41.9292
rwrist 21.1743
rhand -23.2482 -22.2552
rfingers 7.12502
rthumb 3.20345 -52.2108
lclavicle 1.2921e-014 -1.31198e-014
lhumerus -20.4591 -10.6907 90.0988
lradius 39.2347
lwrist 30.9225
lhand -24.8937 -10.2192
lfingers 7.12502
lthumb 1.61424 19.7544
rfemur -23.626 -5.44008 21.0059
rtibia 28.8711
rfoot 14.8662 -6.03853
rtoes 12.2775
lfemur -27.1899 4.69001 -16.1026
ltibia 31.3235
lfoot 20.4797 -1.01973
ltoes -2.08689
431
root 0.419385 21.3216 -3.18364 7.52997 6.30375 -2.01225
lowerback 6.39324 -0.367429 -1.52263
upperback 3.61567 -0.553137 1.9998
thorax 0.176925 -0.314838 2.94779
lowerneck -10.6109 -0.981787 -1.60636
upperneck 27.3877 -1.56381 1.99442
head 10.5372 -0.636973 0.802453
rclavicle 1.80894e-014 -3.97569e-016
rhumerus -26.8809 -5.43844 -82.9422
rradius 41.5634
rwrist 21.3084
rhand -23.2715 -22.2485
rfingers 7.12502
rthumb 3.18091 -52.2045
lclavicle 1.80894e-014 -3.97569e-016
lhumerus -20.6971 -10.8642 89.9486
lradius 39.3687
lwrist 30.9611
lhand -24.6917 -10.1396
lfingers 7.12502
lthumb 1.80931 19.8325
rfemur -23.8727 -5.37646 20.8503
rtibia 27.5557
rfoot 15.0411 -5.96718
rtoes 12.3396
lfemur -27.3702 4.69446 -16.1798
ltibia 29.8385
lfoot 20.3532 -1.69597
ltoes -2.41158
432
root 0.42413 21.2924 -2.96523 7.25952 6.27365 -1.99476
lowerback 6.27848 -0.305049 -1.50835
upperback 3.60026 -0.469028 1.96131
thorax 0.218784 -0.272584 2.89383
lowerneck -10.4193 -1.03706 -1.63853
upperneck 27.5831 -1.65444 2.04963
head 10.5748 -0.675147 0.818646
rclavicle -1.18774e-014 1.98785e-016
rhumerus -27.0613 -5.31602 -82.9022
rradius 41.256
rwrist 21.4356
rhand -23.2771 -22.2555
rfingers 7.12502
rthumb 3.17552 -52.2116
lclavicle -1.18774e-014 1.98785e-016
lhumerus -20.9545 -11.0585 89.759
lradius 39.5441
lwrist 31.0074
lhand -24.4871 -10.0675
lfingers 7.12502
lthumb 2.00695 19.9028
rfemur -24.0355 -5.31191 20.6798
rtibia 26.2719
rfoot 15.1791 -5.83964
rtoes 12.2754
lfemur -27.4187 4.67565 -16.2389
ltibia 28.3062
lfoot 20.2844 -2.36579
ltoes -2.63057
